v 18.125059 49.998010 3.002499
v 43.125059 49.998010 3.002499
v 30.625059 24.998987 3.002499
v 43.125059 24.998987 3.002499
v 43.125059 -0.001013 3.001499
v 18.125059 24.998987 3.002499
v 18.125059 -0.001013 3.001499
v 14.375059 24.998987 0.001499
v 14.375059 21.246973 0.001499
v 10.625059 -0.001013 0.001499
v 18.125059 24.998987 0.001499
v 18.125059 7.499963 0.001499
v 18.125059 -0.001013 0.001499
v 1.876035 -0.001013 0.001499
v 6.249082 24.998987 0.001499
v 10.624082 24.998987 0.001499
v 10.623105 49.998010 0.001499
v 18.125059 42.495996 0.001499
v 18.125059 49.998010 0.001499
v 5.626035 -0.001013 3.001499
v 17.094053 24.998987 6.300499
v 12.907041 24.998987 6.300499
v 11.811094 -0.001013 6.300499
v 39.001035 -0.001013 6.300499
v 26.503110 24.998987 6.300499
v 22.248105 -0.001013 6.300499
v 41.063047 24.998987 6.300499
v 41.063047 20.876001 6.300499
v 43.125059 24.998987 6.300499
v 43.125059 8.245996 6.300499
v 43.125059 -0.001013 6.300499
v 21.217100 24.998987 6.300499
v 20.187070 -0.001013 6.300499
v 7.752012 24.998987 6.300499
v 5.626035 -0.001013 6.300499
v 43.125059 49.998010 6.300499
v 30.757017 49.998010 6.300499
v 34.879087 24.998987 6.300499
v 22.247007 49.998010 6.300499
v 22.248105 24.998987 6.300499
v 9.879087 49.998010 6.300499
v 10.845029 24.998987 6.300499
v 14.002012 49.998010 6.300499
v 2.145078 49.998010 6.300499
v 3.885068 24.998987 6.300499
v 43.125059 41.753015 6.300499
v 0.792051 24.998987 6.300499
v 0.000059 24.998987 6.300499
v 0.000059 29.759912 0.001499
v 0.000059 24.998987 0.001499
v 0.000059 40.850427 6.300499
v 0.000059 49.998010 6.300499
v 0.000059 49.998010 3.825829
v 0.000059 49.998010 0.001499
v 0.000059 -0.001013 2.101339
v 0.000059 3.148584 6.300499
v 0.000059 -0.001013 0.002033
v 0.000059 -0.001013 6.001850
v 0.000059 -0.001013 6.300499
v 0.000059 10.718958 0.001499
v 0.000059 10.354028 6.300499
f 1 2 3
f 3 4 5
f 3 6 1
f 5 7 3
f 3 7 6
f 3 2 4
f 8 9 10
f 11 10 9
f 12 10 11
f 13 10 12
f 10 14 15
f 8 16 17
f 11 18 1
f 11 1 6
f 13 12 7
f 19 17 1
f 7 20 14
f 7 14 10
f 10 13 7
f 18 19 1
f 12 11 6
f 12 6 7
f 15 17 16
f 18 8 19
f 17 19 8
f 15 16 10
f 8 10 16
f 8 18 9
f 11 9 18
f 21 22 23
f 24 25 26
f 27 24 28
f 29 28 24
f 30 29 24
f 31 30 24
f 26 32 33
f 23 34 35
f 36 37 38
f 25 39 40
f 22 41 42
f 39 43 21
f 34 44 45
f 7 5 24
f 7 24 26
f 37 36 2
f 2 1 39
f 2 39 37
f 30 31 5
f 26 33 7
f 41 43 1
f 36 46 2
f 5 4 29
f 5 29 30
f 4 2 46
f 4 46 29
f 23 35 20
f 20 7 33
f 20 33 23
f 43 39 1
f 31 24 5
f 1 17 44
f 1 44 41
f 25 38 37
f 39 25 37
f 25 24 38
f 38 24 27
f 23 33 21
f 21 33 32
f 34 42 41
f 44 34 41
f 46 36 27
f 38 27 36
f 34 45 35
f 45 44 47
f 21 43 22
f 41 22 43
f 32 40 39
f 21 32 39
f 34 23 42
f 22 42 23
f 32 26 40
f 25 40 26
f 27 28 46
f 29 46 28
f 48 49 50
f 48 51 49
f 52 49 51
f 53 49 52
f 54 49 53
f 55 56 57
f 58 56 55
f 59 56 58
f 50 60 48
f 61 57 56
f 60 57 61
f 61 48 60
f 49 54 17
f 57 14 20
f 55 57 20
f 57 60 14
f 60 50 15
f 60 15 14
f 50 49 17
f 50 17 15
f 45 47 61
f 45 61 56
f 52 51 44
f 20 35 59
f 20 59 58
f 54 53 17
f 44 17 53
f 44 53 52
f 58 55 20
f 48 61 47
f 56 59 35
f 56 35 45
f 51 48 47
f 51 47 44
